<svg id="mermaid-1627736487810" width="100%" xmlns="http://www.w3.org/2000/svg" xmlns:xlink="http://www.w3.org/1999/xlink" height="484.25" style="max-width: 666.4921875px;" viewBox="-20 -20 666.4921875 484.25"><style>#mermaid-1627736487810{font-family:"trebuchet ms",verdana,arial,sans-serif;font-size:16px;fill:#333;}#mermaid-1627736487810 .error-icon{fill:#552222;}#mermaid-1627736487810 .error-text{fill:#552222;stroke:#552222;}#mermaid-1627736487810 .edge-thickness-normal{stroke-width:2px;}#mermaid-1627736487810 .edge-thickness-thick{stroke-width:3.5px;}#mermaid-1627736487810 .edge-pattern-solid{stroke-dasharray:0;}#mermaid-1627736487810 .edge-pattern-dashed{stroke-dasharray:3;}#mermaid-1627736487810 .edge-pattern-dotted{stroke-dasharray:2;}#mermaid-1627736487810 .marker{fill:#333333;stroke:#333333;}#mermaid-1627736487810 .marker.cross{stroke:#333333;}#mermaid-1627736487810 svg{font-family:"trebuchet ms",verdana,arial,sans-serif;font-size:16px;}#mermaid-1627736487810 g.classGroup text{fill:#9370DB;fill:#131300;stroke:none;font-family:"trebuchet ms",verdana,arial,sans-serif;font-size:10px;}#mermaid-1627736487810 g.classGroup text .title{font-weight:bolder;}#mermaid-1627736487810 .classTitle{font-weight:bolder;}#mermaid-1627736487810 .node rect,#mermaid-1627736487810 .node circle,#mermaid-1627736487810 .node ellipse,#mermaid-1627736487810 .node polygon,#mermaid-1627736487810 .node path{fill:#ECECFF;stroke:#9370DB;stroke-width:1px;}#mermaid-1627736487810 .divider{stroke:#9370DB;stroke:1;}#mermaid-1627736487810 g.clickable{cursor:pointer;}#mermaid-1627736487810 g.classGroup rect{fill:#ECECFF;stroke:#9370DB;}#mermaid-1627736487810 g.classGroup line{stroke:#9370DB;stroke-width:1;}#mermaid-1627736487810 .classLabel .box{stroke:none;stroke-width:0;fill:#ECECFF;opacity:0.5;}#mermaid-1627736487810 .classLabel .label{fill:#9370DB;font-size:10px;}#mermaid-1627736487810 .relation{stroke:#333333;stroke-width:1;fill:none;}#mermaid-1627736487810 .dashed-line{stroke-dasharray:3;}#mermaid-1627736487810 #compositionStart,#mermaid-1627736487810 .composition{fill:#333333 !important;stroke:#333333 !important;stroke-width:1;}#mermaid-1627736487810 #compositionEnd,#mermaid-1627736487810 .composition{fill:#333333 !important;stroke:#333333 !important;stroke-width:1;}#mermaid-1627736487810 #dependencyStart,#mermaid-1627736487810 .dependency{fill:#333333 !important;stroke:#333333 !important;stroke-width:1;}#mermaid-1627736487810 #dependencyStart,#mermaid-1627736487810 .dependency{fill:#333333 !important;stroke:#333333 !important;stroke-width:1;}#mermaid-1627736487810 #extensionStart,#mermaid-1627736487810 .extension{fill:#333333 !important;stroke:#333333 !important;stroke-width:1;}#mermaid-1627736487810 #extensionEnd,#mermaid-1627736487810 .extension{fill:#333333 !important;stroke:#333333 !important;stroke-width:1;}#mermaid-1627736487810 #aggregationStart,#mermaid-1627736487810 .aggregation{fill:#ECECFF !important;stroke:#333333 !important;stroke-width:1;}#mermaid-1627736487810 #aggregationEnd,#mermaid-1627736487810 .aggregation{fill:#ECECFF !important;stroke:#333333 !important;stroke-width:1;}#mermaid-1627736487810 .edgeTerminals{font-size:11px;}#mermaid-1627736487810:root{--mermaid-font-family:"trebuchet ms",verdana,arial,sans-serif;}</style><g></g><defs><marker id="extensionStart" class="extension" refX="0" refY="7" markerWidth="190" markerHeight="240" orient="auto"><path d="M 1,7 L18,13 V 1 Z"></path></marker></defs><defs><marker id="extensionEnd" refX="19" refY="7" markerWidth="20" markerHeight="28" orient="auto"><path d="M 1,1 V 13 L18,7 Z"></path></marker></defs><defs><marker id="compositionStart" class="extension" refX="0" refY="7" markerWidth="190" markerHeight="240" orient="auto"><path d="M 18,7 L9,13 L1,7 L9,1 Z"></path></marker></defs><defs><marker id="compositionEnd" refX="19" refY="7" markerWidth="20" markerHeight="28" orient="auto"><path d="M 18,7 L9,13 L1,7 L9,1 Z"></path></marker></defs><defs><marker id="aggregationStart" class="extension" refX="0" refY="7" markerWidth="190" markerHeight="240" orient="auto"><path d="M 18,7 L9,13 L1,7 L9,1 Z"></path></marker></defs><defs><marker id="aggregationEnd" refX="19" refY="7" markerWidth="20" markerHeight="28" orient="auto"><path d="M 18,7 L9,13 L1,7 L9,1 Z"></path></marker></defs><defs><marker id="dependencyStart" class="extension" refX="0" refY="7" markerWidth="190" markerHeight="240" orient="auto"><path d="M 5,7 L9,13 L1,7 L9,1 Z"></path></marker></defs><defs><marker id="dependencyEnd" refX="19" refY="7" markerWidth="20" markerHeight="28" orient="auto"><path d="M 18,7 L9,13 L14,7 L9,1 Z"></path></marker></defs><g id="classid-User-0" class="classGroup" transform="translate(266.6875,383.1875 )"><rect x="0" y="0" width="90.25" height="61.0625" class=" "></rect><text y="15" x="0"><tspan class="title" x="34.5703125">User</tspan></text><line x1="0" y1="21" y2="21" x2="90.25"></line><text x="5" y="31" fill="white" class="classText"><tspan x="5">id: number</tspan><tspan x="5" dy="10">username: string</tspan><tspan x="5" dy="10">password: string</tspan></text><line x1="0" y1="57.0625" y2="57.0625" x2="90.25"></line><text x="5" y="72.0625" fill="white" class="classText"></text></g><g id="classid-Account-1" class="classGroup" transform="translate(302,242.125 )"><rect x="0" y="0" width="99.4375" height="91.0625" class=" "></rect><text y="15" x="0"><tspan class="title" x="30.7109375">Account</tspan></text><line x1="0" y1="21" y2="21" x2="99.4375"></line><text x="5" y="31" fill="white" class="classText"><tspan x="5">id: number</tspan><tspan x="5" dy="10">name: string</tspan><tspan x="5" dy="10">description: string</tspan><tspan x="5" dy="10">balance: number</tspan><tspan x="5" dy="10">user: User</tspan><tspan x="5" dy="10">type: AccountType</tspan></text><line x1="0" y1="87.0625" y2="87.0625" x2="99.4375"></line><text x="5" y="102.0625" fill="white" class="classText"></text></g><g id="classid-AccountType-2" class="classGroup" transform="translate(446.84375,388.15625 )"><rect x="0" y="0" width="71.40625" height="51.125" class=" "></rect><text y="15" x="0"><tspan class="title" x="5.1875">AccountType</tspan></text><line x1="0" y1="21.0625" y2="21.0625" x2="71.40625"></line><text x="5" y="31.0625" fill="white" class="classText"><tspan x="5">id: number</tspan><tspan x="5" dy="10">name: string</tspan></text><line x1="0" y1="47.125" y2="47.125" x2="71.40625"></line><text x="5" y="62.125" fill="white" class="classText"></text></g><g id="classid-Transaction-3" class="classGroup" transform="translate(265.5859375,0 )"><rect x="0" y="0" width="112.265625" height="81.0625" class=" "></rect><text y="15" x="0"><tspan x="32.4375">«abstract»</tspan><tspan class="title" dy="10" x="28.6875">Transaction</tspan></text><line x1="0" y1="31" y2="31" x2="112.265625"></line><text x="5" y="41" fill="white" class="classText"><tspan x="5">id: number</tspan><tspan x="5" dy="10">data: Date</tspan><tspan x="5" dy="10">amount: number</tspan><tspan x="5" dy="10">notice: string</tspan></text><line x1="0" y1="77.0625" y2="77.0625" x2="112.265625"></line><text x="5" y="92.0625" fill="white" class="classText"></text></g><g id="classid-TransactionCategory-4" class="classGroup" transform="translate(20.6171875,257.09375 )"><rect x="0" y="0" width="155.546875" height="61.125" class=" "></rect><text y="15" x="0"><tspan class="title" x="29.609375">TransactionCategory</tspan></text><line x1="0" y1="21.0625" y2="21.0625" x2="155.546875"></line><text x="5" y="31.0625" fill="white" class="classText"><tspan x="5">id: number</tspan><tspan x="5" dy="10">name: string</tspan><tspan x="5" dy="10">type: TransactionCategoryType</tspan></text><line x1="0" y1="57.125" y2="57.125" x2="155.546875"></line><text x="5" y="72.125" fill="white" class="classText"></text></g><g id="classid-TransactionCategoryType-5" class="classGroup" transform="translate(0,383.1875 )"><rect x="0" y="0" width="196.78125" height="61.0625" class=" "></rect><text y="15" x="0"><tspan x="64.6796875">«enumeration»</tspan><tspan class="title" dy="10" x="38.703125">TransactionCategoryType</tspan></text><line x1="0" y1="31.0625" y2="31.0625" x2="196.78125"></line><text x="5" y="41.0625" fill="white" class="classText"><tspan x="5">INCOME</tspan><tspan x="5" dy="10">EXPENSE</tspan></text><line x1="0" y1="57.0625" y2="57.0625" x2="196.78125"></line><text x="5" y="72.0625" fill="white" class="classText"></text></g><g id="classid-Income-6" class="classGroup" transform="translate(27.7421875,131.09375 )"><rect x="0" y="0" width="161.296875" height="61" class=" "></rect><text y="15" x="0"><tspan class="title" x="63.7421875">Income</tspan></text><line x1="0" y1="21" y2="21" x2="161.296875"></line><text x="5" y="31" fill="white" class="classText"><tspan x="5">type: TransactionType = INCOME</tspan><tspan x="5" dy="10">category: TransactionCategory</tspan><tspan x="5" dy="10">account: Account</tspan></text><line x1="0" y1="57" y2="57" x2="161.296875"></line><text x="5" y="72" fill="white" class="classText"></text></g><g id="classid-Expense-7" class="classGroup" transform="translate(239.0390625,131.0625 )"><rect x="0" y="0" width="165.359375" height="61.0625" class=" "></rect><text y="15" x="0"><tspan class="title" x="63.3046875">Expense</tspan></text><line x1="0" y1="21.0625" y2="21.0625" x2="165.359375"></line><text x="5" y="31.0625" fill="white" class="classText"><tspan x="5">type: TransactionType = EXPENSE</tspan><tspan x="5" dy="10">category: TransactionCategory</tspan><tspan x="5" dy="10">account: Account</tspan></text><line x1="0" y1="57.0625" y2="57.0625" x2="165.359375"></line><text x="5" y="72.0625" fill="white" class="classText"></text></g><g id="classid-Transfer-8" class="classGroup" transform="translate(454.3984375,131.09375 )"><rect x="0" y="0" width="172.09375" height="61" class=" "></rect><text y="15" x="0"><tspan class="title" x="66.21875">Transfer</tspan></text><line x1="0" y1="21" y2="21" x2="172.09375"></line><text x="5" y="31" fill="white" class="classText"><tspan x="5">type: TransactionType = TRANSFER</tspan><tspan x="5" dy="10">from: Account</tspan><tspan x="5" dy="10">to: Account</tspan></text><line x1="0" y1="57" y2="57" x2="172.09375"></line><text x="5" y="72" fill="white" class="classText"></text></g><path d="M325.95738258750555,333.1875L323.5999021562546,337.3541666666667C321.2424217250037,341.5208333333333,316.52746086250187,349.8541666666667,314.1699804312509,358.1875C311.8125,366.5208333333333,311.8125,374.8541666666667,311.8125,379.0208333333333L311.8125,383.1875" id="edge0" class="relation" marker-end="url(#dependencyEnd)"></path><path d="M401.4375,314.4603151498865L414.9557291666667,321.7481792915721C428.4739583333333,329.0360434332577,455.5104166666667,343.6117717166289,469.0286458333333,355.89442752498115C482.546875,368.1770833333333,482.546875,378.1666666666667,482.546875,383.1614583333333L482.546875,388.15625" id="edge1" class="relation" marker-end="url(#aggregationEnd)"></path><path d="M265.5859375,57.77442114370468L239.38671875,65.82243428642057C213.1875,73.87044742913645,160.7890625,89.96647371456822,134.58984375,102.18636185728411C108.390625,114.40625,108.390625,122.75,108.390625,126.921875L108.390625,131.09375" id="edge2" class="relation" marker-start="url(#extensionStart)"></path><path d="M321.71875,81.0625L321.71875,85.22916666666667C321.71875,89.39583333333333,321.71875,97.72916666666667,321.71875,106.0625C321.71875,114.39583333333333,321.71875,122.72916666666667,321.71875,126.89583333333333L321.71875,131.0625" id="edge3" class="relation" marker-start="url(#extensionStart)"></path><path d="M377.8515625,57.34883871486231L404.9505208333333,65.46778226238526C432.0494791666667,73.5867258099082,486.2473958333333,89.82461290495411,513.3463541666666,102.11543145247704C540.4453125,114.40625,540.4453125,122.75,540.4453125,126.921875L540.4453125,131.09375" id="edge4" class="relation" marker-start="url(#extensionStart)"></path><path d="M97.4058191474395,192.09375L95.90328678953291,196.265625C94.40075443162634,200.4375,91.39568971581316,208.78125,90.83762641712974,219.61458333333334C90.27956311844632,230.44791666666666,92.16850123689262,243.77083333333334,93.11297029611579,250.43229166666666L94.05743935533894,257.09375" id="edge5" class="relation" marker-end="url(#dependencyEnd)"></path><path d="M172.46722882667416,192.09375L181.23180527222848,196.265625C189.99638171778278,200.4375,207.52553460889138,208.78125,229.1143298044457,220.09412585579472C250.703125,231.40700171158946,276.3515625,245.68900342317895,289.17578125,252.83000427897366L302,259.9710051347684" id="edge6" class="relation" marker-end="url(#dependencyEnd)"></path><path d="M257.5764939153067,192.125L248.82285951275557,196.29166666666666C240.06922511020446,200.45833333333334,222.5619563051022,208.79166666666666,203.7342312263216,219.61979166666666C184.906506147541,230.44791666666666,164.75832479508196,243.77083333333334,154.68423411885246,250.43229166666666L144.61014344262296,257.09375" id="edge7" class="relation" marker-end="url(#dependencyEnd)"></path><path d="M332.71481077658973,192.125L334.2154673138248,196.29166666666666C335.7161238510598,200.45833333333334,338.7174369255299,208.79166666666666,340.8088481518803,217.125C342.90025937823066,225.45833333333334,344.0817687564614,233.79166666666666,344.6725234455767,237.95833333333334L345.2632781346921,242.125" id="edge8" class="relation" marker-end="url(#dependencyEnd)"></path><path d="M540.4453125,192.09375L540.4453125,196.265625C540.4453125,200.4375,540.4453125,208.78125,517.27734375,221.61150235956453C494.109375,234.44175471912902,447.7734375,251.75850943825807,424.60546875,260.4168867978226L401.4375,269.0752641573871" id="edge9" class="relation" marker-end="url(#dependencyEnd)"></path><path d="M98.390625,318.21875L98.390625,324.8802083333333C98.390625,331.5416666666667,98.390625,344.8645833333333,98.390625,355.6927083333333C98.390625,366.5208333333333,98.390625,374.8541666666667,98.390625,379.0208333333333L98.390625,383.1875" id="edge10" class="relation" marker-end="url(#aggregationEnd)"></path></svg>