<svg id="mermaid-1628024165316" width="100%" xmlns="http://www.w3.org/2000/svg" xmlns:xlink="http://www.w3.org/1999/xlink" height="474" style="max-width: 557.484375px;" viewBox="-20 -20 557.484375 474"><style>#mermaid-1628024165316{font-family:"trebuchet ms",verdana,arial,sans-serif;font-size:16px;fill:#333;}#mermaid-1628024165316 .error-icon{fill:#552222;}#mermaid-1628024165316 .error-text{fill:#552222;stroke:#552222;}#mermaid-1628024165316 .edge-thickness-normal{stroke-width:2px;}#mermaid-1628024165316 .edge-thickness-thick{stroke-width:3.5px;}#mermaid-1628024165316 .edge-pattern-solid{stroke-dasharray:0;}#mermaid-1628024165316 .edge-pattern-dashed{stroke-dasharray:3;}#mermaid-1628024165316 .edge-pattern-dotted{stroke-dasharray:2;}#mermaid-1628024165316 .marker{fill:#333333;stroke:#333333;}#mermaid-1628024165316 .marker.cross{stroke:#333333;}#mermaid-1628024165316 svg{font-family:"trebuchet ms",verdana,arial,sans-serif;font-size:16px;}#mermaid-1628024165316 g.classGroup text{fill:#9370DB;fill:#131300;stroke:none;font-family:"trebuchet ms",verdana,arial,sans-serif;font-size:10px;}#mermaid-1628024165316 g.classGroup text .title{font-weight:bolder;}#mermaid-1628024165316 .classTitle{font-weight:bolder;}#mermaid-1628024165316 .node rect,#mermaid-1628024165316 .node circle,#mermaid-1628024165316 .node ellipse,#mermaid-1628024165316 .node polygon,#mermaid-1628024165316 .node path{fill:#ECECFF;stroke:#9370DB;stroke-width:1px;}#mermaid-1628024165316 .divider{stroke:#9370DB;stroke:1;}#mermaid-1628024165316 g.clickable{cursor:pointer;}#mermaid-1628024165316 g.classGroup rect{fill:#ECECFF;stroke:#9370DB;}#mermaid-1628024165316 g.classGroup line{stroke:#9370DB;stroke-width:1;}#mermaid-1628024165316 .classLabel .box{stroke:none;stroke-width:0;fill:#ECECFF;opacity:0.5;}#mermaid-1628024165316 .classLabel .label{fill:#9370DB;font-size:10px;}#mermaid-1628024165316 .relation{stroke:#333333;stroke-width:1;fill:none;}#mermaid-1628024165316 .dashed-line{stroke-dasharray:3;}#mermaid-1628024165316 #compositionStart,#mermaid-1628024165316 .composition{fill:#333333 !important;stroke:#333333 !important;stroke-width:1;}#mermaid-1628024165316 #compositionEnd,#mermaid-1628024165316 .composition{fill:#333333 !important;stroke:#333333 !important;stroke-width:1;}#mermaid-1628024165316 #dependencyStart,#mermaid-1628024165316 .dependency{fill:#333333 !important;stroke:#333333 !important;stroke-width:1;}#mermaid-1628024165316 #dependencyStart,#mermaid-1628024165316 .dependency{fill:#333333 !important;stroke:#333333 !important;stroke-width:1;}#mermaid-1628024165316 #extensionStart,#mermaid-1628024165316 .extension{fill:#333333 !important;stroke:#333333 !important;stroke-width:1;}#mermaid-1628024165316 #extensionEnd,#mermaid-1628024165316 .extension{fill:#333333 !important;stroke:#333333 !important;stroke-width:1;}#mermaid-1628024165316 #aggregationStart,#mermaid-1628024165316 .aggregation{fill:#ECECFF !important;stroke:#333333 !important;stroke-width:1;}#mermaid-1628024165316 #aggregationEnd,#mermaid-1628024165316 .aggregation{fill:#ECECFF !important;stroke:#333333 !important;stroke-width:1;}#mermaid-1628024165316 .edgeTerminals{font-size:11px;}#mermaid-1628024165316:root{--mermaid-font-family:"trebuchet ms",verdana,arial,sans-serif;}</style><g></g><defs><marker id="extensionStart" class="extension" refX="0" refY="7" markerWidth="190" markerHeight="240" orient="auto"><path d="M 1,7 L18,13 V 1 Z"></path></marker></defs><defs><marker id="extensionEnd" refX="19" refY="7" markerWidth="20" markerHeight="28" orient="auto"><path d="M 1,1 V 13 L18,7 Z"></path></marker></defs><defs><marker id="compositionStart" class="extension" refX="0" refY="7" markerWidth="190" markerHeight="240" orient="auto"><path d="M 18,7 L9,13 L1,7 L9,1 Z"></path></marker></defs><defs><marker id="compositionEnd" refX="19" refY="7" markerWidth="20" markerHeight="28" orient="auto"><path d="M 18,7 L9,13 L1,7 L9,1 Z"></path></marker></defs><defs><marker id="aggregationStart" class="extension" refX="0" refY="7" markerWidth="190" markerHeight="240" orient="auto"><path d="M 18,7 L9,13 L1,7 L9,1 Z"></path></marker></defs><defs><marker id="aggregationEnd" refX="19" refY="7" markerWidth="20" markerHeight="28" orient="auto"><path d="M 18,7 L9,13 L1,7 L9,1 Z"></path></marker></defs><defs><marker id="dependencyStart" class="extension" refX="0" refY="7" markerWidth="190" markerHeight="240" orient="auto"><path d="M 5,7 L9,13 L1,7 L9,1 Z"></path></marker></defs><defs><marker id="dependencyEnd" refX="19" refY="7" markerWidth="20" markerHeight="28" orient="auto"><path d="M 18,7 L9,13 L14,7 L9,1 Z"></path></marker></defs><g id="classid-User-0" class="classGroup" transform="translate(259.72265625,373 )"><rect x="0" y="0" width="91.234375" height="61" class=" "></rect><text y="15" x="0"><tspan class="title" x="34.6953125">User</tspan></text><line x1="0" y1="21" y2="21" x2="91.234375"></line><text x="5" y="31" fill="white" class="classText"><tspan x="5">id: number</tspan><tspan x="5" dy="10">username: string</tspan><tspan x="5" dy="10">password: string</tspan></text><line x1="0" y1="57" y2="57" x2="91.234375"></line><text x="5" y="72" fill="white" class="classText"></text></g><g id="classid-Account-1" class="classGroup" transform="translate(290.2109375,232 )"><rect x="0" y="0" width="99.828125" height="91" class=" "></rect><text y="15" x="0"><tspan class="title" x="29.890625">Account</tspan></text><line x1="0" y1="21" y2="21" x2="99.828125"></line><text x="5" y="31" fill="white" class="classText"><tspan x="5">id: number</tspan><tspan x="5" dy="10">name: string</tspan><tspan x="5" dy="10">description: string</tspan><tspan x="5" dy="10">balance: number</tspan><tspan x="5" dy="10">user: User</tspan><tspan x="5" dy="10">type: AccountType</tspan></text><line x1="0" y1="87" y2="87" x2="99.828125"></line><text x="5" y="102" fill="white" class="classText"></text></g><g id="classid-AccountType-2" class="classGroup" transform="translate(433.01171875,378 )"><rect x="0" y="0" width="73.375" height="51" class=" "></rect><text y="15" x="0"><tspan class="title" x="5.921875">AccountType</tspan></text><line x1="0" y1="21" y2="21" x2="73.375"></line><text x="5" y="31" fill="white" class="classText"><tspan x="5">id: number</tspan><tspan x="5" dy="10">name: string</tspan></text><line x1="0" y1="47" y2="47" x2="73.375"></line><text x="5" y="62" fill="white" class="classText"></text></g><g id="classid-Transaction-3" class="classGroup" transform="translate(254.609375,0 )"><rect x="0" y="0" width="111.03125" height="81" class=" "></rect><text y="15" x="0"><tspan x="31.8203125">«abstract»</tspan><tspan class="title" dy="10" x="28.1875">Transaction</tspan></text><line x1="0" y1="31" y2="31" x2="111.03125"></line><text x="5" y="41" fill="white" class="classText"><tspan x="5">id: number</tspan><tspan x="5" dy="10">date: Date</tspan><tspan x="5" dy="10">amount: number</tspan><tspan x="5" dy="10">notice: string</tspan></text><line x1="0" y1="77" y2="77" x2="111.03125"></line><text x="5" y="92" fill="white" class="classText"></text></g><g id="classid-TransactionCategory-4" class="classGroup" transform="translate(20.046875,247 )"><rect x="0" y="0" width="154.84375" height="61" class=" "></rect><text y="15" x="0"><tspan class="title" x="29.09375">TransactionCategory</tspan></text><line x1="0" y1="21" y2="21" x2="154.84375"></line><text x="5" y="31" fill="white" class="classText"><tspan x="5">id: number</tspan><tspan x="5" dy="10">name: string</tspan><tspan x="5" dy="10">type: TransactionCategoryType</tspan></text><line x1="0" y1="57" y2="57" x2="154.84375"></line><text x="5" y="72" fill="white" class="classText"></text></g><g id="classid-TransactionCategoryType-5" class="classGroup" transform="translate(0,373 )"><rect x="0" y="0" width="194.9375" height="61" class=" "></rect><text y="15" x="0"><tspan x="63.7578125">«enumeration»</tspan><tspan class="title" dy="10" x="38.1953125">TransactionCategoryType</tspan></text><line x1="0" y1="31" y2="31" x2="194.9375"></line><text x="5" y="41" fill="white" class="classText"><tspan x="5">INCOME</tspan><tspan x="5" dy="10">EXPENSE</tspan></text><line x1="0" y1="57" y2="57" x2="194.9375"></line><text x="5" y="72" fill="white" class="classText"></text></g><g id="classid-Income-6" class="classGroup" transform="translate(31.140625,131 )"><rect x="0" y="0" width="152.65625" height="51" class=" "></rect><text y="15" x="0"><tspan class="title" x="59.296875">Income</tspan></text><line x1="0" y1="21" y2="21" x2="152.65625"></line><text x="5" y="31" fill="white" class="classText"><tspan x="5">category: TransactionCategory</tspan><tspan x="5" dy="10">account: Account</tspan></text><line x1="0" y1="47" y2="47" x2="152.65625"></line><text x="5" y="62" fill="white" class="classText"></text></g><g id="classid-Expense-7" class="classGroup" transform="translate(233.796875,131 )"><rect x="0" y="0" width="152.65625" height="51" class=" "></rect><text y="15" x="0"><tspan class="title" x="56.828125">Expense</tspan></text><line x1="0" y1="21" y2="21" x2="152.65625"></line><text x="5" y="31" fill="white" class="classText"><tspan x="5">category: TransactionCategory</tspan><tspan x="5" dy="10">account: Account</tspan></text><line x1="0" y1="47" y2="47" x2="152.65625"></line><text x="5" y="62" fill="white" class="classText"></text></g><g id="classid-Transfer-8" class="classGroup" transform="translate(436.453125,131 )"><rect x="0" y="0" width="81.03125" height="51" class=" "></rect><text y="15" x="0"><tspan class="title" x="20.4921875">Transfer</tspan></text><line x1="0" y1="21" y2="21" x2="81.03125"></line><text x="5" y="31" fill="white" class="classText"><tspan x="5">from: Account</tspan><tspan x="5" dy="10">to: Account</tspan></text><line x1="0" y1="47" y2="47" x2="81.03125"></line><text x="5" y="62" fill="white" class="classText"></text></g><path d="M317.67500554078015,323L315.6191452423168,327.1666666666667C313.56328494385343,331.3333333333333,309.4515643469267,339.6666666666667,307.39570404846336,348C305.33984375,356.3333333333333,305.33984375,364.6666666666667,305.33984375,368.8333333333333L305.33984375,373" id="edge0" class="relation" marker-end="url(#dependencyEnd)"></path><path d="M390.0390625,304.65772813602246L403.3157552083333,311.881440113352C416.5924479166667,319.10515209068166,443.1458333333333,333.5525760453408,456.4225260416667,345.77628802267037C469.69921875,358,469.69921875,368,469.69921875,373L469.69921875,378" id="edge1" class="relation" marker-end="url(#aggregationEnd)"></path><path d="M254.609375,58.443060909791825L230.0859375,66.36921742482652C205.5625,74.29537393986122,156.515625,90.1476869699306,131.9921875,102.24051015163197C107.46875,114.33333333333333,107.46875,122.66666666666667,107.46875,126.83333333333333L107.46875,131" id="edge2" class="relation" marker-start="url(#extensionStart)"></path><path d="M310.125,81L310.125,85.16666666666667C310.125,89.33333333333333,310.125,97.66666666666667,310.125,106C310.125,114.33333333333333,310.125,122.66666666666667,310.125,126.83333333333333L310.125,131" id="edge3" class="relation" marker-start="url(#extensionStart)"></path><path d="M365.640625,62.294483985765126L384.1953125,69.57873665480427C402.75,76.86298932384342,439.859375,91.4314946619217,458.4140625,102.88241399762751C476.96875,114.33333333333333,476.96875,122.66666666666667,476.96875,126.83333333333333L476.96875,131" id="edge4" class="relation" marker-start="url(#extensionStart)"></path><path d="M97.3697400990099,182L95.71957508250826,186.16666666666666C94.0694100660066,190.33333333333334,90.7690800330033,198.66666666666666,90.06454149404301,209.5C89.36000295508275,220.33333333333334,91.25125591016548,233.66666666666666,92.19688238770686,240.33333333333334L93.14250886524823,247" id="edge5" class="relation" marker-end="url(#dependencyEnd)"></path><path d="M163.68394183168317,182L172.8694306930693,186.16666666666666C182.05491955445544,190.33333333333334,200.4258972772277,198.66666666666666,221.51372988861385,209.74941511053873C242.6015625,220.8321635544108,266.40625,234.66432710882165,278.30859375,241.58040888602704L290.2109375,248.49649066323246" id="edge6" class="relation" marker-end="url(#dependencyEnd)"></path><path d="M253.90980816831683,182L244.7243193069307,186.16666666666666C235.53883044554456,190.33333333333334,217.1678527227723,198.66666666666666,198.40050806942398,209.5C179.63316341607563,220.33333333333334,160.4694518321513,233.66666666666666,150.88759604018912,240.33333333333334L141.30574024822695,247" id="edge7" class="relation" marker-end="url(#dependencyEnd)"></path><path d="M320.2240099009901,182L321.87417491749176,186.16666666666666C323.5243399339934,190.33333333333334,326.8246699669967,198.66666666666666,329.0658515319617,207C331.3070330969267,215.33333333333334,332.48906619385343,223.66666666666666,333.0800827423168,227.83333333333334L333.67109929078015,232" id="edge8" class="relation" marker-end="url(#dependencyEnd)"></path><path d="M476.96875,182L476.96875,186.16666666666666C476.96875,190.33333333333334,476.96875,198.66666666666666,462.48046875,210.2974946715384C447.9921875,221.92832267641015,419.015625,236.85664535282027,404.52734375,244.32080669102535L390.0390625,251.7849680292304" id="edge9" class="relation" marker-end="url(#dependencyEnd)"></path><path d="M97.46875,308L97.46875,314.6666666666667C97.46875,321.3333333333333,97.46875,334.6666666666667,97.46875,345.5C97.46875,356.3333333333333,97.46875,364.6666666666667,97.46875,368.8333333333333L97.46875,373" id="edge10" class="relation" marker-end="url(#aggregationEnd)"></path></svg>